{
  "asset": {
    "version": "2.0",
    "generator": "THREE.GLTFExporter"
  },
  "scenes": [
    {
      "name": "Scene",
      "nodes": [
        5,
        6,
        7
      ]
    }
  ],
  "scene": 0,
  "nodes": [
    {
      "scale": [
        0.6000000238418579,
        0.30000001192092896,
        0.04412427172064781
      ],
      "name": "frame",
      "extras": {
        "name": "frame"
      },
      "mesh": 0
    },
    {
      "name": "Cube002",
      "mesh": 1
    },
    {
      "name": "Cube002_1",
      "mesh": 2
    },
    {
      "name": "Cube002_2",
      "mesh": 3
    },
    {
      "rotation": [
        -8.005065621147522e-8,
        -0.18523198906993216,
        -1.5089062205698706e-8,
        0.9826948322035123
      ],
      "translation": [
        -0.4863188862800598,
        1.275314450263977,
        0.03641602769494057
      ],
      "scale": [
        0.6000000834465027,
        0.30000001192092896,
        0.025114303454756737
      ],
      "name": "door",
      "extras": {
        "name": "door"
      },
      "children": [
        1,
        2,
        3
      ]
    },
    {
      "name": "open-the-door.glb",
      "children": [
        0,
        4
      ]
    },
    {
      "name": "AmbientLight"
    },
    {
      "translation": [
        -1.68,
        12.94,
        2.3
      ],
      "name": "DirectionalLight",
      "extensions": {
        "KHR_lights_punctual": {
          "light": 0
        }
      }
    }
  ],
  "bufferViews": [
    {
      "buffer": 0,
      "byteOffset": 0,
      "byteLength": 576,
      "target": 34962,
      "byteStride": 12
    },
    {
      "buffer": 0,
      "byteOffset": 576,
      "byteLength": 576,
      "target": 34962,
      "byteStride": 12
    },
    {
      "buffer": 0,
      "byteOffset": 1152,
      "byteLength": 384,
      "target": 34962,
      "byteStride": 8
    },
    {
      "buffer": 0,
      "byteOffset": 1536,
      "byteLength": 192,
      "target": 34963
    },
    {
      "buffer": 0,
      "byteOffset": 1728,
      "byteLength": 8748,
      "target": 34962,
      "byteStride": 12
    },
    {
      "buffer": 0,
      "byteOffset": 10476,
      "byteLength": 8748,
      "target": 34962,
      "byteStride": 12
    },
    {
      "buffer": 0,
      "byteOffset": 19224,
      "byteLength": 5832,
      "target": 34962,
      "byteStride": 8
    },
    {
      "buffer": 0,
      "byteOffset": 25056,
      "byteLength": 2744,
      "target": 34963
    },
    {
      "buffer": 0,
      "byteOffset": 27800,
      "byteLength": 4212,
      "target": 34962,
      "byteStride": 12
    },
    {
      "buffer": 0,
      "byteOffset": 32012,
      "byteLength": 4212,
      "target": 34962,
      "byteStride": 12
    },
    {
      "buffer": 0,
      "byteOffset": 36224,
      "byteLength": 2808,
      "target": 34962,
      "byteStride": 8
    },
    {
      "buffer": 0,
      "byteOffset": 39032,
      "byteLength": 1184,
      "target": 34963
    },
    {
      "buffer": 0,
      "byteOffset": 40216,
      "byteLength": 3984,
      "target": 34962,
      "byteStride": 12
    },
    {
      "buffer": 0,
      "byteOffset": 44200,
      "byteLength": 3984,
      "target": 34962,
      "byteStride": 12
    },
    {
      "buffer": 0,
      "byteOffset": 48184,
      "byteLength": 2656,
      "target": 34962,
      "byteStride": 8
    },
    {
      "buffer": 0,
      "byteOffset": 50840,
      "byteLength": 2784,
      "target": 34963
    },
    {
      "buffer": 0,
      "byteOffset": 53624,
      "byteLength": 200
    },
    {
      "buffer": 0,
      "byteOffset": 53824,
      "byteLength": 600
    },
    {
      "buffer": 0,
      "byteOffset": 54424,
      "byteLength": 200
    },
    {
      "buffer": 0,
      "byteOffset": 54624,
      "byteLength": 800
    },
    {
      "buffer": 0,
      "byteOffset": 55424,
      "byteLength": 200
    },
    {
      "buffer": 0,
      "byteOffset": 55624,
      "byteLength": 600
    }
  ],
  "buffers": [
    {
      "byteLength": 56224,
      "uri": "data:application/octet-stream;base64,"
    }
  ],
  "accessors": [
    {
      "bufferView": 0,
      "componentType": 5126,
      "count": 48,
      "max": [
        1,
        8.055999755859375,
        1
      ],
      "min": [
        -1,
        0,
        -1
      ],
      "type": "VEC3"
    },
    {
      "bufferView": 1,
      "componentType": 5126,
      "count": 48,
      "max": [
        1,
        1,
        1
      ],
      "min": [
        -1,
        -1,
        -1
      ],
      "type": "VEC3"
    },
    {
      "bufferView": 2,
      "componentType": 5126,
      "count": 48,
      "max": [
        0.6736512184143066,
        0.9878023266792297
      ],
      "min": [
        0.002619691425934434,
        0.12425178289413452
      ],
      "type": "VEC2"
    },
    {
      "bufferView": 3,
      "componentType": 5123,
      "count": 96,
      "max": [
        47
      ],
      "min": [
        0
      ],
      "type": "SCALAR"
    },
    {
      "bufferView": 4,
      "componentType": 5126,
      "count": 729,
      "max": [
        1.6245145797729492,
        3.4270448684692383,
        0.3732297420501709
      ],
      "min": [
        -0.0034517645835876465,
        -4.153006076812744,
        -2.3577890396118164
      ],
      "type": "VEC3"
    },
    {
      "bufferView": 5,
      "componentType": 5126,
      "count": 729,
      "max": [
        1,
        1,
        1
      ],
      "min": [
        -1,
        -1,
        -1
      ],
      "type": "VEC3"
    },
    {
      "bufferView": 6,
      "componentType": 5126,
      "count": 729,
      "max": [
        0.9994860887527466,
        0.9966261982917786
      ],
      "min": [
        0.0005140725988894701,
        0.0032181739807128906
      ],
      "type": "VEC2"
    },
    {
      "bufferView": 7,
      "componentType": 5123,
      "count": 1371,
      "max": [
        728
      ],
      "min": [
        0
      ],
      "type": "SCALAR"
    },
    {
      "bufferView": 8,
      "componentType": 5126,
      "count": 351,
      "max": [
        1.4188172817230225,
        3.088897228240967,
        -0.8030012845993042
      ],
      "min": [
        0.2004019021987915,
        -0.24525916576385498,
        -1.1997450590133667
      ],
      "type": "VEC3"
    },
    {
      "bufferView": 9,
      "componentType": 5126,
      "count": 351,
      "max": [
        1,
        1,
        1
      ],
      "min": [
        -1,
        -1,
        -1
      ],
      "type": "VEC3"
    },
    {
      "bufferView": 10,
      "componentType": 5126,
      "count": 351,
      "max": [
        0.9810495972633362,
        0.7391089797019958
      ],
      "min": [
        0.03718113154172897,
        0.0055977702140808105
      ],
      "type": "VEC2"
    },
    {
      "bufferView": 11,
      "componentType": 5123,
      "count": 591,
      "max": [
        350
      ],
      "min": [
        0
      ],
      "type": "SCALAR"
    },
    {
      "bufferView": 12,
      "componentType": 5126,
      "count": 332,
      "max": [
        1.5571458339691162,
        -0.56507408618927,
        4.07579231262207
      ],
      "min": [
        1.4261554479599,
        -0.8272430300712585,
        -6.0603532791137695
      ],
      "type": "VEC3"
    },
    {
      "bufferView": 13,
      "componentType": 5126,
      "count": 332,
      "max": [
        1,
        1,
        1
      ],
      "min": [
        -1,
        -1,
        -1
      ],
      "type": "VEC3"
    },
    {
      "bufferView": 14,
      "componentType": 5126,
      "count": 332,
      "max": [
        0.990778386592865,
        0.9934932589530945
      ],
      "min": [
        0.16463659703731537,
        0.05151498317718506
      ],
      "type": "VEC2"
    },
    {
      "bufferView": 15,
      "componentType": 5123,
      "count": 1392,
      "max": [
        331
      ],
      "min": [
        0
      ],
      "type": "SCALAR"
    },
    {
      "bufferView": 16,
      "componentType": 5126,
      "count": 50,
      "max": [
        2.0833332538604736
      ],
      "min": [
        0.0416666679084301
      ],
      "type": "SCALAR"
    },
    {
      "bufferView": 17,
      "componentType": 5126,
      "count": 50,
      "max": [
        -0.4863188862800598,
        1.275314450263977,
        0.03641602769494057
      ],
      "min": [
        -0.4863188862800598,
        1.275314450263977,
        0.03641602769494057
      ],
      "type": "VEC3"
    },
    {
      "bufferView": 18,
      "componentType": 5126,
      "count": 50,
      "max": [
        2.0833332538604736
      ],
      "min": [
        0.0416666679084301
      ],
      "type": "SCALAR"
    },
    {
      "bufferView": 19,
      "componentType": 5126,
      "count": 50,
      "max": [
        -3.315861363262229e-8,
        0.0005052018677815795,
        4.115390667136509e-11,
        1
      ],
      "min": [
        -8.146034247147327e-8,
        -0.9134048819541931,
        -7.4406273142813e-8,
        0.40705230832099915
      ],
      "type": "VEC4"
    },
    {
      "bufferView": 20,
      "componentType": 5126,
      "count": 50,
      "max": [
        2.0833332538604736
      ],
      "min": [
        0.0416666679084301
      ],
      "type": "SCALAR"
    },
    {
      "bufferView": 21,
      "componentType": 5126,
      "count": 50,
      "max": [
        0.6000000834465027,
        0.30000001192092896,
        0.025114305317401886
      ],
      "min": [
        0.5999999642372131,
        0.30000001192092896,
        0.02511429786682129
      ],
      "type": "VEC3"
    }
  ],
  "materials": [
    {
      "pbrMetallicRoughness": {
        "baseColorFactor": [
          0.800000011920929,
          0.800000011920929,
          0.800000011920929,
          1
        ],
        "metallicFactor": 0,
        "roughnessFactor": 0.4000000059604645
      },
      "doubleSided": true,
      "name": "doors"
    },
    {
      "pbrMetallicRoughness": {
        "baseColorFactor": [
          0.024534348398447037,
          0.34441909193992615,
          0.8000000715255737,
          1
        ],
        "metallicFactor": 0,
        "roughnessFactor": 0.5
      },
      "doubleSided": true,
      "name": "window"
    },
    {
      "pbrMetallicRoughness": {
        "baseColorFactor": [
          0.2597986161708832,
          0.1501937210559845,
          0.1064365953207016,
          1
        ],
        "metallicFactor": 0,
        "roughnessFactor": 0.5
      },
      "doubleSided": true,
      "name": "handle"
    }
  ],
  "meshes": [
    {
      "primitives": [
        {
          "mode": 4,
          "attributes": {
            "POSITION": 0,
            "NORMAL": 1,
            "TEXCOORD_0": 2
          },
          "indices": 3,
          "material": 0
        }
      ]
    },
    {
      "primitives": [
        {
          "mode": 4,
          "attributes": {
            "POSITION": 4,
            "NORMAL": 5,
            "TEXCOORD_0": 6
          },
          "indices": 7,
          "material": 0
        }
      ]
    },
    {
      "primitives": [
        {
          "mode": 4,
          "attributes": {
            "POSITION": 8,
            "NORMAL": 9,
            "TEXCOORD_0": 10
          },
          "indices": 11,
          "material": 1
        }
      ]
    },
    {
      "primitives": [
        {
          "mode": 4,
          "attributes": {
            "POSITION": 12,
            "NORMAL": 13,
            "TEXCOORD_0": 14
          },
          "indices": 15,
          "material": 2
        }
      ]
    }
  ],
  "extensions": {
    "KHR_lights_punctual": {
      "lights": [
        {
          "name": "DirectionalLight",
          "color": [
            0.8392156862745098,
            0.8392156862745098,
            0.8392156862745098
          ],
          "intensity": 2.16,
          "type": "directional"
        }
      ]
    }
  },
  "animations": [
    {
      "name": "door|door|doorAction",
      "samplers": [
        {
          "input": 16,
          "output": 17,
          "interpolation": "LINEAR"
        },
        {
          "input": 18,
          "output": 19,
          "interpolation": "LINEAR"
        },
        {
          "input": 20,
          "output": 21,
          "interpolation": "LINEAR"
        }
      ],
      "channels": [
        {
          "sampler": 0,
          "target": {
            "node": 4,
            "path": "translation"
          }
        },
        {
          "sampler": 1,
          "target": {
            "node": 4,
            "path": "rotation"
          }
        },
        {
          "sampler": 2,
          "target": {
            "node": 4,
            "path": "scale"
          }
        }
      ]
    }
  ],
  "extensionsUsed": [
    "KHR_lights_punctual"
  ]
}